<svg xmlns="http://www.w3.org/2000/svg" id="Calque_2" viewBox="0 0 455.31 150.97"><defs><style>      .cls-1 {        fill: #a73089;      }      .cls-2 {        fill: #273375;      }      .cls-3 {        fill: #00b3d4;      }      .cls-4 {        fill: #1d1d1b;      }      .cls-5 {        fill: #1d1d1b;      }      .cls-6 {        fill: #a63088;      }      .cls-7 {        fill: #e30613;      }      .cls-8 {        fill: #9d9d9c;      }    </style></defs><g id="LOGO_IMT-BS_RF"><g><g><g><path class="cls-4" d="M327.85,98.4c-1.15,0-2.19.25-3.13.74-.88.49-1.62,1.27-2.22,2.33-.34-.88-.84-1.6-1.5-2.16-.82-.6-1.89-.91-3.22-.91-1.4,0-2.55.35-3.43,1.06-.5.4-1.03,1.06-1.6,2v-2.62h-4.42v17.96h4.61v-10.83c0-.98.12-1.72.37-2.21.45-.87,1.32-1.3,2.62-1.3,1.12,0,1.87.43,2.25,1.3.21.48.32,1.26.32,2.33v10.71h4.58v-10.71c0-.8.12-1.49.37-2.06.48-1.08,1.35-1.62,2.6-1.62,1.08,0,1.83.42,2.23,1.25.21.44.32,1,.32,1.68v11.46h4.66l.03-11.34c0-1.17-.05-2.05-.16-2.66-.17-.91-.5-1.68-.99-2.31-.61-.77-1.28-1.31-2.03-1.62-.74-.31-1.5-.46-2.27-.46M305.85,107.82c0-2.6-.73-4.84-2.2-6.75-1.47-1.9-3.7-2.85-6.69-2.85s-5.22.95-6.69,2.85c-1.47,1.9-2.2,4.15-2.2,6.75s.73,4.9,2.2,6.77c1.47,1.87,3.7,2.81,6.69,2.81s5.22-.94,6.69-2.81c1.47-1.87,2.2-4.13,2.2-6.77M296.94,113.46c-1.33,0-2.35-.49-3.07-1.47-.72-.98-1.08-2.37-1.08-4.17s.36-3.19,1.08-4.16c.72-.97,1.74-1.46,3.07-1.46s2.35.49,3.07,1.46c.71.97,1.07,2.36,1.07,4.16s-.36,3.19-1.07,4.17c-.71.98-1.74,1.47-3.07,1.47M286.7,105.25c-.26-2.56-1.08-4.35-2.47-5.36-1.39-1.01-3.18-1.52-5.36-1.52-2.57,0-4.58.86-6.04,2.58-1.46,1.72-2.19,4.12-2.19,7.2,0,2.74.66,4.96,1.98,6.68,1.32,1.72,3.38,2.57,6.18,2.57s4.91-1.03,6.34-3.09c.89-1.28,1.4-2.63,1.5-4.06h-4.64c-.1.95-.37,1.72-.82,2.31-.45.59-1.21.89-2.27.89-1.5,0-2.53-.75-3.07-2.25-.3-.8-.45-1.86-.45-3.18s.15-2.49.45-3.33c.56-1.57,1.62-2.36,3.15-2.36,1.08,0,1.87.36,2.39,1.09.35.54.57,1.14.66,1.82h4.66ZM261.13,91.44l-3.06,4.94h3.29l4.85-4.94h-5.08ZM260.82,98.32c-2.55,0-4.62.83-6.22,2.49-1.6,1.66-2.4,4.05-2.4,7.17,0,3.33.89,5.73,2.66,7.2,1.77,1.48,3.81,2.21,6.13,2.21,2.8,0,4.99-.87,6.55-2.62,1-1.1,1.56-2.18,1.69-3.25h-4.64c-.27.53-.58.94-.94,1.24-.65.55-1.49.82-2.53.82-.98,0-1.81-.22-2.51-.68-1.14-.73-1.75-1.99-1.82-3.8h12.67c.02-1.55-.03-2.74-.15-3.57-.21-1.41-.67-2.65-1.39-3.72-.79-1.21-1.79-2.1-3.01-2.66-1.21-.56-2.58-.84-4.09-.84M260.83,102.2c1.07,0,1.97.32,2.7.97.73.65,1.13,1.59,1.21,2.84h-7.84c.16-1.17.57-2.1,1.21-2.79.64-.68,1.55-1.03,2.72-1.03M249.74,92.46h-4.55v24.33h4.55v-24.33ZM234.73,91.44l-3.06,4.94h3.29l4.85-4.94h-5.08ZM234.42,98.32c-2.55,0-4.62.83-6.22,2.49-1.6,1.66-2.4,4.05-2.4,7.17,0,3.33.88,5.73,2.65,7.2,1.77,1.48,3.81,2.21,6.13,2.21,2.81,0,4.99-.87,6.55-2.62,1-1.1,1.56-2.18,1.69-3.25h-4.64c-.27.53-.58.94-.94,1.24-.65.55-1.49.82-2.53.82-.98,0-1.81-.22-2.51-.68-1.14-.73-1.75-1.99-1.82-3.8h12.67c.02-1.55-.03-2.74-.15-3.57-.21-1.41-.67-2.65-1.39-3.72-.79-1.21-1.79-2.1-3.01-2.66-1.21-.56-2.58-.84-4.09-.84M234.42,102.2c1.07,0,1.97.32,2.7.97.73.65,1.13,1.59,1.21,2.84h-7.84c.16-1.17.57-2.1,1.21-2.79.64-.68,1.55-1.03,2.72-1.03M208.33,92.46v4.31h7.07v20.02h4.95v-20.02h7.04v-4.31h-19.06ZM200.54,109.6h8.91v-4.46h-8.91v4.46ZM182.83,111.05c0,1.85.65,3.37,1.96,4.56,1.31,1.19,3.33,1.79,6.07,1.79s4.67-.56,5.96-1.69c1.28-1.13,1.93-2.58,1.93-4.37,0-1.35-.45-2.48-1.34-3.38-.91-.89-2.26-1.56-4.08-2-2.72-.62-4.3-1.05-4.75-1.3-.45-.24-.67-.63-.67-1.17,0-.43.21-.8.63-1.12.42-.32,1.13-.48,2.12-.48,1.21,0,2.06.32,2.56.96.27.35.43.83.5,1.44h4.55c-.2-2.2-.99-3.75-2.36-4.65-1.37-.9-3.14-1.35-5.32-1.35-2.29,0-4.07.6-5.34,1.79-1.26,1.19-1.89,2.62-1.89,4.28,0,1.41.4,2.49,1.21,3.23.81.76,2.2,1.39,4.18,1.9,2.75.67,4.33,1.15,4.76,1.42.43.28.64.68.64,1.21s-.26.96-.79,1.24c-.53.27-1.24.41-2.14.41-1.53,0-2.58-.31-3.14-.94-.32-.35-.53-.95-.63-1.78h-4.61ZM173.21,98.32c-2.55,0-4.62.83-6.22,2.49-1.6,1.66-2.4,4.05-2.4,7.17,0,3.33.89,5.73,2.66,7.2,1.77,1.48,3.81,2.21,6.13,2.21,2.8,0,4.99-.87,6.55-2.62,1-1.1,1.56-2.18,1.69-3.25h-4.64c-.27.53-.58.94-.94,1.24-.65.55-1.49.82-2.53.82-.98,0-1.81-.22-2.51-.68-1.14-.73-1.75-1.99-1.82-3.8h12.67c.02-1.55-.03-2.74-.15-3.57-.21-1.41-.67-2.65-1.39-3.72-.79-1.21-1.79-2.1-3.01-2.66-1.21-.56-2.58-.84-4.09-.84M173.21,102.2c1.07,0,1.97.32,2.7.97.73.65,1.13,1.59,1.21,2.84h-7.84c.16-1.17.57-2.1,1.21-2.79.64-.68,1.55-1.03,2.72-1.03M156.22,98.37c-1.43,0-2.61.36-3.54,1.09-.52.41-1.07,1.07-1.65,2v-2.62h-4.41v17.96h4.55v-9.74c0-1.11.15-2.02.44-2.74.57-1.35,1.62-2.03,3.15-2.03,1.25,0,2.09.46,2.54,1.39.24.51.36,1.23.36,2.18v10.94h4.66v-12.12c0-2.26-.57-3.87-1.71-4.84-1.14-.97-2.6-1.46-4.4-1.46M138.47,116.79h4.61v-17.99h-4.61v17.99ZM143.09,92.31h-4.61v4.34h4.61v-4.34ZM123.47,111.59l-4.28-19.13h-7.15v24.33h4.58v-16.46c0-.47,0-1.14-.02-1.99-.01-.85-.02-1.51-.02-1.97l4.43,20.42h4.78l4.46-20.42c0,.46,0,1.12-.02,1.97-.01.85-.02,1.52-.02,1.99v16.46h4.58v-24.33h-7.07l-4.25,19.13ZM93.72,102.32v11.08c0,1.12.26,1.95.77,2.49.79.85,2.26,1.23,4.41,1.16l2.15-.08v-3.52c-.15.01-.3.02-.45.02-.15,0-.3,0-.44,0-.93,0-1.48-.09-1.66-.27-.18-.18-.27-.64-.27-1.38v-9.51h2.82v-3.35h-2.82v-5.02h-4.5v5.02h-2.43v3.35h2.43ZM73.8,98.8v10.84c0,2.06.25,3.62.75,4.67.89,1.91,2.62,2.87,5.19,2.87.89,0,1.67-.12,2.33-.36.66-.24,1.35-.69,2.06-1.35.23-.21.43-.45.6-.73.17-.28.28-.44.32-.5v2.54h4.42v-17.99h-4.61v9.79c0,1.15-.15,2.08-.45,2.79-.57,1.3-1.63,1.95-3.18,1.95-1.21,0-2.02-.46-2.43-1.37-.23-.52-.35-1.29-.35-2.31v-10.84h-4.66ZM64.5,102.32v11.08c0,1.12.26,1.95.77,2.49.79.85,2.26,1.23,4.41,1.16l2.15-.08v-3.52c-.15.01-.3.02-.45.02-.15,0-.3,0-.44,0-.93,0-1.48-.09-1.66-.27-.18-.18-.27-.64-.27-1.38v-9.51h2.82v-3.35h-2.82v-5.02h-4.5v5.02h-2.43v3.35h2.43ZM55.58,116.79h4.61v-17.99h-4.61v17.99ZM60.19,92.31h-4.61v4.34h4.61v-4.34ZM45.84,102.32v11.08c0,1.12.26,1.95.76,2.49.79.85,2.26,1.23,4.41,1.16l2.16-.08v-3.52c-.15.01-.3.02-.46.02-.15,0-.3,0-.44,0-.93,0-1.48-.09-1.66-.27-.18-.18-.27-.64-.27-1.38v-9.51h2.83v-3.35h-2.83v-5.02h-4.5v5.02h-2.43v3.35h2.43ZM26.63,111.05c0,1.85.65,3.37,1.96,4.56,1.31,1.19,3.33,1.79,6.07,1.79s4.67-.56,5.96-1.69c1.28-1.13,1.93-2.58,1.93-4.37,0-1.35-.45-2.48-1.34-3.38-.91-.89-2.26-1.56-4.08-2-2.72-.62-4.3-1.05-4.75-1.3-.45-.24-.67-.63-.67-1.17,0-.43.21-.8.63-1.12.42-.32,1.13-.48,2.12-.48,1.21,0,2.06.32,2.56.96.27.35.43.83.5,1.44h4.55c-.2-2.2-.99-3.75-2.36-4.65-1.37-.9-3.14-1.35-5.32-1.35-2.29,0-4.07.6-5.34,1.79-1.26,1.19-1.9,2.62-1.9,4.28,0,1.41.4,2.49,1.21,3.23.81.76,2.2,1.39,4.18,1.9,2.75.67,4.33,1.15,4.76,1.42.43.28.64.68.64,1.21s-.26.96-.79,1.24c-.53.27-1.24.41-2.14.41-1.53,0-2.58-.31-3.14-.94-.32-.35-.53-.95-.62-1.78h-4.61ZM18.17,98.37c-1.43,0-2.61.36-3.54,1.09-.52.41-1.07,1.07-1.65,2v-2.62h-4.41v17.96h4.55v-9.74c0-1.11.15-2.02.44-2.74.57-1.35,1.62-2.03,3.15-2.03,1.25,0,2.09.46,2.54,1.39.24.51.36,1.23.36,2.18v10.94h4.66v-12.12c0-2.26-.57-3.87-1.71-4.84-1.14-.97-2.6-1.46-4.4-1.46M4.88,92.46H0v24.33h4.88v-24.33Z"></path><path class="cls-6" d="M249.06,126.01h-4.55v24.33h4.55v-24.33ZM241.91,141.37c0-2.6-.73-4.84-2.2-6.75-1.47-1.9-3.7-2.85-6.69-2.85s-5.22.95-6.69,2.85c-1.47,1.9-2.2,4.15-2.2,6.75s.73,4.9,2.2,6.77c1.47,1.87,3.7,2.81,6.69,2.81s5.22-.94,6.69-2.81c1.47-1.87,2.2-4.13,2.2-6.77M233,147c-1.33,0-2.35-.49-3.07-1.47s-1.08-2.37-1.08-4.17.36-3.19,1.08-4.16c.72-.97,1.74-1.46,3.07-1.46s2.35.49,3.07,1.46c.71.97,1.07,2.36,1.07,4.16s-.36,3.19-1.07,4.17c-.71.98-1.74,1.47-3.07,1.47M222.59,141.37c0-2.6-.73-4.84-2.2-6.75-1.47-1.9-3.7-2.85-6.69-2.85s-5.22.95-6.69,2.85c-1.47,1.9-2.2,4.15-2.2,6.75s.73,4.9,2.2,6.77c1.47,1.87,3.7,2.81,6.69,2.81s5.22-.94,6.69-2.81c1.47-1.87,2.2-4.13,2.2-6.77M213.69,147c-1.33,0-2.35-.49-3.07-1.47-.72-.98-1.08-2.37-1.08-4.17s.36-3.19,1.08-4.16c.72-.97,1.74-1.46,3.07-1.46s2.35.49,3.07,1.46c.71.97,1.07,2.36,1.07,4.16s-.36,3.19-1.07,4.17c-.71.98-1.73,1.47-3.07,1.47M196.28,131.87c-.95,0-1.86.21-2.73.62-.86.41-1.62,1.14-2.28,2.19v-8.58h-4.55v24.25h4.55v-9.75c0-1.54.31-2.73.93-3.56.62-.83,1.52-1.25,2.72-1.25s1.93.42,2.34,1.26c.32.6.48,1.38.48,2.35v10.96h4.64v-10.57c0-1.61-.05-2.77-.16-3.48-.11-.71-.4-1.4-.87-2.07-.56-.79-1.28-1.38-2.15-1.77-.87-.39-1.85-.58-2.92-.58M184.27,138.8c-.26-2.56-1.08-4.35-2.47-5.36-1.39-1.01-3.18-1.52-5.36-1.52-2.57,0-4.58.86-6.04,2.58-1.46,1.72-2.19,4.12-2.19,7.2,0,2.74.66,4.96,1.98,6.68,1.32,1.72,3.38,2.57,6.18,2.57s4.91-1.03,6.34-3.09c.89-1.28,1.4-2.63,1.5-4.06h-4.64c-.1.95-.37,1.72-.82,2.31-.45.59-1.21.89-2.27.89-1.5,0-2.53-.75-3.07-2.25-.3-.8-.45-1.86-.45-3.18s.15-2.49.45-3.33c.56-1.57,1.62-2.36,3.15-2.36,1.08,0,1.87.36,2.38,1.09.35.54.57,1.14.66,1.82h4.66ZM147.05,142.83c0,2.53.89,4.52,2.66,5.97,1.77,1.45,4.21,2.17,7.31,2.17s5.38-.74,7.04-2.2c1.66-1.47,2.49-3.31,2.49-5.54s-.7-3.82-2.1-4.97c-.9-.74-2.26-1.33-4.07-1.77l-4.13-1.01c-1.59-.39-2.64-.72-3.13-1.01-.76-.43-1.15-1.08-1.15-1.95,0-.95.39-1.68,1.16-2.21.78-.53,1.81-.79,3.11-.79,1.17,0,2.14.2,2.93.61,1.18.62,1.81,1.66,1.9,3.12h4.73c-.09-2.59-1.01-4.56-2.79-5.92-1.77-1.36-3.91-2.04-6.42-2.04-3.01,0-5.28.72-6.83,2.16-1.55,1.44-2.33,3.25-2.33,5.43,0,2.39.79,4.14,2.38,5.27.94.67,2.66,1.29,5.16,1.87l2.55.58c1.49.33,2.58.71,3.27,1.14.69.44,1.03,1.06,1.03,1.87,0,1.38-.7,2.32-2.1,2.82-.74.26-1.7.4-2.88.4-1.98,0-3.37-.5-4.19-1.5-.45-.55-.74-1.38-.9-2.49h-4.69ZM120.79,144.59c0,1.85.65,3.37,1.96,4.56,1.31,1.19,3.33,1.79,6.07,1.79s4.67-.56,5.96-1.69c1.29-1.13,1.93-2.58,1.93-4.37,0-1.35-.45-2.48-1.34-3.38-.9-.89-2.26-1.56-4.07-2-2.72-.62-4.3-1.05-4.75-1.3-.45-.24-.67-.63-.67-1.17,0-.43.21-.8.63-1.12.42-.32,1.13-.48,2.12-.48,1.21,0,2.06.32,2.56.96.27.35.43.83.49,1.44h4.55c-.2-2.2-.99-3.75-2.36-4.65-1.37-.9-3.14-1.35-5.32-1.35-2.29,0-4.07.6-5.34,1.79-1.26,1.19-1.89,2.62-1.89,4.28,0,1.41.4,2.49,1.21,3.24.81.76,2.2,1.39,4.18,1.9,2.75.67,4.33,1.15,4.76,1.42.43.28.64.68.64,1.21s-.27.96-.79,1.24c-.53.27-1.24.41-2.14.41-1.53,0-2.58-.31-3.14-.94-.32-.35-.53-.95-.62-1.78h-4.61ZM103.31,144.59c0,1.85.65,3.37,1.96,4.56,1.31,1.19,3.33,1.79,6.07,1.79s4.67-.56,5.96-1.69c1.29-1.13,1.93-2.58,1.93-4.37,0-1.35-.45-2.48-1.34-3.38-.9-.89-2.26-1.56-4.08-2-2.72-.62-4.3-1.05-4.75-1.3-.45-.24-.67-.63-.67-1.17,0-.43.21-.8.63-1.12.42-.32,1.13-.48,2.12-.48,1.21,0,2.06.32,2.56.96.27.35.43.83.5,1.44h4.55c-.2-2.2-.99-3.75-2.36-4.65-1.37-.9-3.14-1.35-5.32-1.35-2.29,0-4.07.6-5.34,1.79-1.26,1.19-1.89,2.62-1.89,4.28,0,1.41.4,2.49,1.21,3.24.81.76,2.2,1.39,4.18,1.9,2.75.67,4.33,1.15,4.76,1.42.43.28.64.68.64,1.21s-.27.96-.79,1.24c-.53.27-1.24.41-2.14.41-1.53,0-2.58-.31-3.14-.94-.32-.35-.53-.95-.62-1.78h-4.61ZM93.69,131.87c-2.55,0-4.62.83-6.22,2.49-1.6,1.66-2.4,4.05-2.4,7.17,0,3.33.88,5.73,2.66,7.2,1.77,1.48,3.81,2.21,6.13,2.21,2.81,0,4.99-.87,6.55-2.62,1-1.1,1.56-2.18,1.69-3.25h-4.64c-.27.53-.58.94-.94,1.24-.65.55-1.49.82-2.53.82-.98,0-1.81-.22-2.51-.68-1.14-.73-1.75-1.99-1.82-3.8h12.67c.02-1.55-.03-2.74-.15-3.57-.21-1.41-.67-2.65-1.39-3.72-.79-1.21-1.79-2.1-3.01-2.66-1.21-.56-2.58-.84-4.09-.84M93.69,135.75c1.07,0,1.97.32,2.7.97s1.13,1.59,1.21,2.84h-7.84c.16-1.17.57-2.1,1.21-2.79.64-.68,1.55-1.03,2.72-1.03M76.7,131.92c-1.43,0-2.61.36-3.54,1.09-.52.41-1.07,1.07-1.65,2v-2.62h-4.41v17.96h4.55v-9.74c0-1.11.15-2.02.44-2.74.57-1.35,1.62-2.03,3.15-2.03,1.25,0,2.09.46,2.54,1.39.24.51.36,1.23.36,2.18v10.94h4.66v-12.12c0-2.26-.57-3.87-1.71-4.84-1.14-.97-2.6-1.46-4.4-1.46M58.95,150.34h4.61v-17.99h-4.61v17.99ZM63.57,125.86h-4.61v4.34h4.61v-4.34ZM40.41,144.59c0,1.85.65,3.37,1.96,4.56,1.31,1.19,3.33,1.79,6.07,1.79s4.67-.56,5.96-1.69c1.29-1.13,1.93-2.58,1.93-4.37,0-1.35-.45-2.48-1.34-3.38-.91-.89-2.26-1.56-4.08-2-2.72-.62-4.3-1.05-4.75-1.3-.45-.24-.67-.63-.67-1.17,0-.43.21-.8.63-1.12.42-.32,1.13-.48,2.12-.48,1.21,0,2.06.32,2.56.96.27.35.43.83.5,1.44h4.55c-.2-2.2-.99-3.75-2.36-4.65-1.37-.9-3.14-1.35-5.32-1.35-2.29,0-4.07.6-5.34,1.79-1.26,1.19-1.9,2.62-1.9,4.28,0,1.41.4,2.49,1.21,3.24.81.76,2.2,1.39,4.18,1.9,2.75.67,4.33,1.15,4.76,1.42.43.28.64.68.64,1.21s-.26.96-.79,1.24c-.53.27-1.24.41-2.14.41-1.53,0-2.58-.31-3.14-.94-.32-.35-.53-.95-.62-1.78h-4.61ZM22.23,132.35v10.84c0,2.06.25,3.62.75,4.67.89,1.91,2.62,2.87,5.19,2.87.89,0,1.67-.12,2.33-.36.66-.24,1.35-.69,2.06-1.35.23-.21.43-.45.6-.73.17-.28.28-.44.32-.5v2.54h4.42v-17.99h-4.61v9.79c0,1.16-.15,2.09-.45,2.79-.57,1.3-1.63,1.95-3.18,1.95-1.21,0-2.02-.46-2.43-1.37-.23-.52-.35-1.29-.35-2.31v-10.84h-4.66ZM11.37,126.01H0v24.33h10.6c1.2,0,2.3-.11,3.33-.33,1.02-.22,1.91-.63,2.66-1.22.67-.52,1.22-1.16,1.67-1.92.7-1.14,1.05-2.44,1.05-3.88s-.31-2.59-.92-3.57c-.61-.98-1.52-1.69-2.72-2.15.79-.42,1.39-.88,1.79-1.39.73-.9,1.09-2.1,1.09-3.58s-.36-2.68-1.08-3.71c-1.2-1.68-3.23-2.55-6.1-2.59M10.49,139.63c1.01.01,1.79.15,2.35.41,1,.47,1.5,1.34,1.5,2.61,0,1.5-.52,2.51-1.55,3.04-.57.29-1.36.43-2.38.43h-5.71v-6.49h5.79ZM9.81,130.23c1.13,0,2.05.13,2.78.38.84.36,1.26,1.11,1.26,2.25,0,1.02-.32,1.74-.95,2.14-.64.4-1.47.6-2.49.6h-5.72v-5.36h5.12Z"></path></g><g><polygon class="cls-3" points="80.74 0 0 80.74 0 0 80.74 0"></polygon><polygon class="cls-3" points="161.48 0 161.48 80.74 80.74 80.74 80.74 0 121.11 40.37 161.48 0"></polygon><polygon class="cls-1" points="201.85 80.74 201.85 40.37 161.48 40.37 201.85 0 282.58 0 201.85 80.74"></polygon></g></g><g><g><path class="cls-5" d="M363.41,21.33h3.27c2.36,0,3.81,1.21,3.81,3.2,0,1.29-.63,2.25-1.71,2.77l3.37,4.74h-2.6l-2.85-4.33h-1.12v4.33h-2.17v-10.71ZM365.58,23.18v2.68h1.22c.92,0,1.45-.49,1.45-1.36,0-.81-.54-1.32-1.45-1.32h-1.22Z"></path><path class="cls-5" d="M373.49,21.33h6.24v1.85h-4.07v2.48h3.46v1.85h-3.46v2.68h4.07v1.85h-6.24v-10.71ZM375.6,20.41l1.73-2.07h2.23l-1.99,2.07h-1.97Z"></path><path class="cls-5" d="M382.26,21.33h3.53c2.36,0,3.79,1.21,3.79,3.2s-1.44,3.18-3.79,3.18h-1.36v4.33h-2.17v-10.71ZM384.43,23.18v2.68h1.45c.92,0,1.47-.49,1.47-1.36,0-.81-.55-1.32-1.47-1.32h-1.45Z"></path><path class="cls-5" d="M397.7,21.33h2.17v6.52c0,2.82-1.65,4.5-4.34,4.5s-4.33-1.68-4.33-4.5v-6.52h2.17v6.7c0,1.44.81,2.28,2.17,2.28s2.16-.84,2.16-2.28v-6.7Z"></path><path class="cls-5" d="M402.56,21.33h3.04c2.23,0,3.58,1.1,3.58,2.91,0,.86-.4,1.61-1.13,2.11,1.13.5,1.76,1.42,1.76,2.54,0,1.96-1.51,3.15-3.98,3.15h-3.27v-10.71ZM404.73,23.18v2.34h.92c.83,0,1.3-.41,1.3-1.18,0-.72-.47-1.16-1.3-1.16h-.92ZM404.73,27.39v2.8h1.22c1.01,0,1.62-.54,1.62-1.42s-.61-1.38-1.62-1.38h-1.22Z"></path><path class="cls-5" d="M412.03,21.33h2.17v8.74h4.07v1.97h-6.24v-10.71Z"></path><path class="cls-5" d="M420.19,21.33h2.17v10.71h-2.17v-10.71Z"></path><path class="cls-5" d="M436.59,32.79c.23,0,.54-.03.76-.12v1.84c-.35.14-.66.2-1.13.2-1.19,0-2.29-.49-3.35-1.41l-1.27-1.13c-.46.12-.95.18-1.47.18-3.38,0-5.69-2.6-5.69-5.66s2.31-5.66,5.69-5.66,5.68,2.6,5.68,5.66c0,1.79-.8,3.43-2.11,4.47l.64.61c.83.75,1.56,1.02,2.25,1.02ZM433.57,26.68c0-2.05-1.44-3.63-3.44-3.63s-3.46,1.58-3.46,3.63,1.44,3.63,3.46,3.63,3.44-1.58,3.44-3.63Z"></path><path class="cls-5" d="M444.21,21.33h2.17v6.52c0,2.82-1.65,4.5-4.34,4.5s-4.33-1.68-4.33-4.5v-6.52h2.17v6.7c0,1.44.81,2.28,2.17,2.28s2.16-.84,2.16-2.28v-6.7Z"></path><path class="cls-5" d="M449.07,21.33h6.24v1.85h-4.07v2.48h3.46v1.85h-3.46v2.68h4.07v1.85h-6.24v-10.71Z"></path><path class="cls-5" d="M363.41,36.77h6.24v1.85h-4.07v2.48h3.46v1.85h-3.46v4.53h-2.17v-10.71Z"></path><path class="cls-5" d="M371.57,36.77h3.27c2.36,0,3.81,1.21,3.81,3.2,0,1.29-.63,2.25-1.71,2.77l3.37,4.74h-2.6l-2.85-4.33h-1.12v4.33h-2.17v-10.71ZM373.74,38.62v2.68h1.22c.92,0,1.45-.49,1.45-1.36,0-.81-.54-1.32-1.45-1.32h-1.22Z"></path><path class="cls-5" d="M384.81,36.77h2.85l4.05,10.71h-2.31l-1.02-2.78h-4.28l-1.02,2.78h-2.31l4.05-10.71ZM387.71,42.85l-1.47-4.02-1.47,4.02h2.94Z"></path><path class="cls-5" d="M393.37,36.77h2.78l4.79,7.66v-7.66h2.17v10.71h-2.78l-4.79-7.7v7.7h-2.17v-10.71Z"></path><path class="cls-5" d="M413.68,44.28l1.71,1.32c-.83,1.13-2.11,1.93-3.67,2.13l-1.33,2.22h-1.93l1.35-2.25c-2.78-.49-4.62-2.85-4.62-5.57,0-3.06,2.31-5.66,5.69-5.66,1.94,0,3.53.87,4.51,2.17l-1.71,1.33c-.61-.87-1.58-1.47-2.8-1.47-2.02,0-3.46,1.58-3.46,3.63s1.44,3.63,3.46,3.63c1.22,0,2.19-.6,2.8-1.47Z"></path><path class="cls-5" d="M419.91,36.77h2.85l4.05,10.71h-2.31l-1.02-2.78h-4.28l-1.02,2.78h-2.31l4.05-10.71ZM422.8,42.85l-1.47-4.02-1.47,4.02h2.94Z"></path><path class="cls-5" d="M428.46,36.77h2.17v10.71h-2.17v-10.71Z"></path><path class="cls-5" d="M434.25,44.54c.64.83,1.5,1.32,2.37,1.32s1.38-.46,1.38-1.24c0-1.91-4.9-1.48-4.9-5.05,0-1.7,1.39-3.11,3.43-3.11,1.61,0,2.85.72,3.75,1.81l-1.59,1.42c-.63-.81-1.33-1.33-2.14-1.33-.75,0-1.24.49-1.24,1.12,0,1.91,4.9,1.47,4.9,5.09-.03,1.99-1.59,3.21-3.55,3.21-1.81,0-3.03-.66-3.98-1.79l1.58-1.45Z"></path><path class="cls-5" d="M442.48,36.77h6.24v1.85h-4.07v2.48h3.46v1.85h-3.46v2.68h4.07v1.85h-6.24v-10.71Z"></path></g><g><path class="cls-5" d="M398.26,77.05c.29,0,.54.22.41.78l-1.35.31c.24-.63.63-1.09.94-1.09M399,79.23h-.27c-.34.4-.7.71-1.06.71s-.56-.22-.56-.71c0-.2.02-.41.06-.6l2.17-.71c.42-1.01-.09-1.44-.68-1.44-1.03,0-2.2,1.72-2.2,3.23,0,.68.32,1.04.82,1.04.59,0,1.2-.57,1.7-1.52M398.57,76.07l1.53-1.43v-.16h-.82l-.94,1.59h.24ZM393.88,77.08h.72l-1.15,3.13c-.1.27.04.53.31.53.65,0,1.7-.64,2.07-1.52h-.2c-.29.31-.85.71-1.33.8l1.05-2.94h1.08l.13-.45h-1.04l.4-1.13h-.42l-.75,1.13-.89.13v.32ZM392.9,76.93c.09-.29-.11-.46-.26-.46-.63,0-1.37.57-1.67,1.36h.2c.2-.29.55-.61.87-.67l-1.2,3.13c-.11.29.11.46.26.46.6,0,1.3-.57,1.59-1.36h-.2c-.2.29-.55.61-.87.67l1.28-3.13ZM393.12,75.36c.28,0,.52-.23.52-.52s-.24-.52-.52-.52-.52.24-.52.52.23.52.52.52M386.21,80.16c-.16.35,0,.58.35.58.21,0,.31-.05.39-.28l.83-2.21c.38-.47,1.18-.97,1.49-.97.23,0,.2.19.05.47l-1.28,2.46c-.13.24.04.53.31.53.63,0,1.37-.57,1.67-1.36h-.2c-.2.29-.55.61-.87.67l1.1-2.22c.14-.28.21-.55.21-.76,0-.36-.2-.6-.58-.6-.54,0-1.09.61-1.74,1.37v-.58c0-.42-.13-.79-.51-.79-.24,0-.46.2-.68.49v.08c.41-.02.59.59.3,1.23l-.85,1.88ZM386.19,77.43c.15-.51.07-.96-.32-.96-.46,0-.58.35-1.05,1.37v-.58c0-.42-.13-.79-.51-.79-.44,0-.84.68-1.15,1.36h.2c.21-.31.41-.49.57-.49.19,0,.29.29,0,.93l-.85,1.88c-.16.35,0,.58.35.58.21,0,.31-.05.39-.28l.83-2.21c.24-.29.45-.54.71-.82h.82ZM381.37,77.05c.29,0,.54.22.41.78l-1.35.31c.24-.63.63-1.09.94-1.09M382.11,79.23h-.27c-.34.4-.7.71-1.06.71s-.56-.22-.56-.71c0-.2.02-.41.06-.6l2.17-.71c.42-1.01-.09-1.44-.68-1.44-1.03,0-2.2,1.72-2.2,3.23,0,.68.32,1.04.82,1.04.59,0,1.2-.57,1.7-1.52M376.99,77.08h.72l-1.15,3.13c-.1.27.04.53.31.53.65,0,1.7-.64,2.07-1.52h-.2c-.29.31-.85.71-1.33.8l1.05-2.94h1.08l.13-.45h-1.04l.4-1.13h-.42l-.75,1.13-.89.13v.32ZM373.02,79.52c0-.97,1.08-2.28,1.68-2.28.13,0,.26.02.37.05l-.63,1.67c-.36.44-.92.97-1.18.97-.15,0-.24-.13-.24-.42M376.33,76.29l-.33-.02-.37.36h-.08c-1.79,0-3.34,2.01-3.34,3.47,0,.41.25.64.64.64.46,0,.92-.66,1.43-1.37l-.02.25c-.06.72.16,1.11.53,1.11.44,0,.84-.68,1.15-1.36h-.2c-.21.31-.41.49-.57.49-.16,0-.28-.3,0-.93l1.15-2.65ZM372.51,77.43c.15-.51.07-.96-.32-.96-.46,0-.58.35-1.05,1.37v-.58c0-.42-.13-.79-.51-.79-.44,0-.84.68-1.15,1.36h.2c.21-.31.41-.49.57-.49.19,0,.29.29,0,.93l-.85,1.88c-.16.35,0,.58.35.58.21,0,.31-.05.39-.28l.83-2.21c.24-.29.45-.54.71-.82h.82ZM366.5,80.59l.08-.24c-1.04-.2-1.18-.2-.76-1.33l.42-1.17h1.15c.52,0,.53.21.45.78h.3l.69-1.89h-.3c-.26.45-.46.78-1.03.78h-1.14l.6-1.66c.19-.53.3-.64,1.01-.64h.5c.73,0,.82.2.82.93h.29l.24-1.29h-4.33l-.08.24c.84.17.92.25.53,1.33l-.94,2.58c-.39,1.08-.56,1.16-1.52,1.33l-.07.24h3.09Z"></path><path class="cls-5" d="M387.74,67.24c.29,0,.54.22.41.78l-1.35.31c.24-.63.63-1.09.94-1.09M388.49,69.41h-.27c-.34.4-.7.71-1.06.71s-.56-.22-.56-.71c0-.2.02-.41.06-.6l2.17-.71c.42-1.01-.09-1.44-.68-1.44-1.03,0-2.2,1.72-2.2,3.23,0,.68.32,1.04.82,1.04.59,0,1.2-.57,1.7-1.52M388.06,66.26l1.53-1.43v-.16h-.82l-.94,1.59h.24ZM383.36,67.26h.72l-1.15,3.13c-.1.27.04.53.31.53.65,0,1.7-.64,2.07-1.52h-.2c-.29.31-.85.71-1.33.8l1.05-2.94h1.08l.13-.45h-1.04l.4-1.13h-.42l-.75,1.13-.89.13v.32ZM382.39,67.11c.09-.29-.11-.46-.26-.46-.63,0-1.37.57-1.67,1.36h.2c.2-.29.55-.61.87-.67l-1.2,3.13c-.11.29.11.46.26.46.6,0,1.3-.57,1.59-1.36h-.2c-.2.29-.55.61-.87.67l1.28-3.13ZM382.61,65.54c.28,0,.52-.23.52-.52s-.24-.52-.52-.52-.52.24-.52.52.23.52.52.52M378.43,70.24l2.19-5.74-.07-.09-1.37.16v.16l.27.2c.24.19.16.37-.05.95l-1.71,4.51c-.13.24.04.53.31.53.63,0,1.3-.57,1.59-1.36h-.2c-.2.29-.63.61-.95.67M374.27,69.7c0-.97,1.08-2.28,1.68-2.28.13,0,.26.02.37.05l-.63,1.67c-.36.44-.92.97-1.18.97-.15,0-.24-.13-.24-.42M377.58,66.48l-.33-.02-.37.36h-.08c-1.79,0-3.34,2.01-3.34,3.47,0,.41.25.64.64.64.46,0,.92-.66,1.43-1.37l-.02.25c-.06.72.16,1.11.53,1.11.44,0,.84-.68,1.15-1.36h-.2c-.21.31-.41.49-.57.49-.16,0-.28-.3,0-.93l1.15-2.65ZM369.58,71.69c0-.42.4-.68.97-.9.19.09.47.2.85.32.6.2.82.27.82.46,0,.38-.65.68-1.54.68-.75,0-1.11-.16-1.11-.55M371.21,69.15c-.26,0-.36-.22-.36-.47,0-.7.38-1.73.97-1.73.26,0,.36.22.36.47,0,.7-.38,1.73-.97,1.73M372.91,71.3c0-.5-.45-.68-1.18-.9-.63-.19-.91-.24-.91-.45,0-.16.13-.36.4-.5,1.03-.05,1.7-.98,1.7-1.76,0-.16-.03-.31-.09-.43h.87l.13-.45h-1.38c-.16-.1-.36-.16-.56-.16-1.09,0-1.8.96-1.8,1.74,0,.59.38.96.83,1.04-.51.23-.79.49-.79.81,0,.18.06.31.21.42-1.18.35-1.64.74-1.64,1.3s.71.77,1.56.77c1.44,0,2.64-.78,2.64-1.43M367.42,67.94c.52,0,.53.21.45.78h.3l.69-1.89h-.3c-.26.45-.46.78-1.03.78h-1.14l.57-1.58c.19-.53.3-.63,1.01-.63h.5c.73,0,.82.2.82.93h.29l.24-1.29h-4.33l-.08.24c.84.17.92.25.53,1.33l-.94,2.58c-.39,1.08-.56,1.16-1.52,1.33l-.07.24h4.82l.86-1.37h-.33c-.55.52-1.24,1.01-2.21,1.01-1.28,0-1.16-.05-.74-1.22l.46-1.25h1.15ZM368.05,64.65l1.53-1.05v-.16h-.93l-.85,1.22h.24Z"></path><path class="cls-5" d="M387.23,57.42c.29,0,.54.22.41.78l-1.35.31c.24-.63.63-1.09.94-1.09M387.98,59.6h-.27c-.34.4-.7.71-1.06.71s-.56-.22-.56-.71c0-.2.02-.41.06-.6l2.17-.71c.42-1.01-.09-1.44-.68-1.44-1.03,0-2.2,1.72-2.2,3.23,0,.68.32,1.04.82,1.04.59,0,1.2-.57,1.7-1.52M387.55,56.44l1.53-1.43v-.16h-.82l-.94,1.59h.24ZM383.05,57.45h.57l-1.15,3.13c-.1.27.04.53.31.53.65,0,1.7-.64,2.07-1.52h-.2c-.29.31-.85.71-1.33.8l1.05-2.94h1.08l.13-.45h-1.04l.4-1.13h-.42l-.75,1.13-.74.13v.32ZM382.48,57.8c.15-.51.07-.96-.32-.96-.46,0-.58.35-1.05,1.37v-.58c0-.42-.13-.79-.51-.79-.44,0-.84.68-1.15,1.36h.2c.21-.31.41-.49.57-.49.19,0,.29.29,0,.93l-.85,1.88c-.16.35,0,.58.35.58.21,0,.31-.05.39-.28l.83-2.21c.24-.29.45-.54.71-.82h.82ZM377.66,57.42c.29,0,.54.22.41.78l-1.35.31c.24-.63.63-1.09.94-1.09M378.41,59.6h-.27c-.34.4-.7.71-1.06.71s-.56-.22-.56-.71c0-.2.02-.41.06-.6l2.17-.71c.42-1.01-.09-1.44-.68-1.44-1.03,0-2.2,1.72-2.2,3.23,0,.68.32,1.04.82,1.04.59,0,1.2-.57,1.7-1.52M373.08,60.48c-.21,0-.52-.2-.52-.37,0-.05.09-.3.21-.6l.35-.93c.38-.45.95-.93,1.27-.93.2,0,.35.13.35.42,0,.86-.8,2.42-1.66,2.42M375.55,57.71c0-.64-.24-.87-.68-.87-.55,0-1.07.58-1.59,1.29l1.31-3.45-.07-.09-1.37.16v.16l.27.2c.24.19.16.38-.05.95l-1.41,3.64c-.1.27-.23.58-.23.67,0,.38.51.73.97.73,1.07,0,2.85-1.92,2.85-3.4M371.28,57.3c.09-.29-.11-.46-.26-.46-.63,0-1.37.57-1.67,1.36h.2c.2-.29.55-.61.87-.67l-1.2,3.13c-.11.29.11.46.26.46.6,0,1.3-.57,1.59-1.36h-.2c-.2.29-.55.61-.87.67l1.28-3.13ZM371.5,55.73c.28,0,.52-.23.52-.52s-.24-.52-.52-.52-.52.24-.52.52.23.52.52.52M368.34,55.22h-2.86l-.08.24c.84.17.92.25.53,1.33l-.93,2.58c-.39,1.08-.56,1.16-1.52,1.33l-.07.24h4.35l.94-1.68h-.33c-.53.59-1.16,1.33-2.13,1.33-.73,0-.82-.13-.42-1.22l.93-2.58c.38-1.08.56-1.16,1.52-1.33l.07-.24Z"></path></g><g><path class="cls-2" d="M379.54,12.54c.15-.15.31-.32.46-.48h0c.29-.32.57-.63.9-.91.1-.09.2-.17.29-.23.03-.03.03-.08.05-.11-.13.05-.22.16-.35.21-.03,0-.05-.03-.03-.05.1-.07.19-.14.29-.22,0,0-.01,0-.02,0-.03,0-.03-.03-.03-.05-.35-.05-.62.19-.86.4-.05.03-.11-.03-.13-.03-.4.13-.7.48-1.1.64v-.05c-.16.05-.32.15-.48.19-.24.05-.46.03-.67.03-.33.03-.65.1-.98.17,0,0-.02,0-.03,0-.17.05-.34.11-.5.2,0,0-.01,0-.02.01-.01.02-.03.03-.04.05-.06.06-.11.12-.18.16-.17.08-.3.23-.45.35-.01,0-.03.01-.04.01-.14.14-.29.28-.43.41-.01,0-.05.01-.08,0,0,0,0,0,0,0,0,0,.01-.02.02-.03.02-.04.05-.08.07-.11.03-.04.05-.08.08-.12.04-.06.07-.11.11-.16.01-.01,0-.03,0-.04,0,0-.02-.01-.04-.01.13-.13.29-.24.45-.34,0,0,0,0,0,0-.02,0-.04,0-.03-.03.02-.02.03-.05.05-.07,0,0,0-.02,0-.02,0,0-.01-.01-.02-.02-.04.03-.09.06-.13.09-.06.06-.11.18-.21.18,0,0-.03,0-.04,0-.01,0-.02,0-.03,0,0,0,0,0,0,0,0,0,0,0,0,0,0,0,0,0,0,0,0,0,0-.02.01-.02,0,0,0-.02.01-.02,0,0,0-.01.01-.02,0-.01.01-.02.02-.03,0,0,0-.02.01-.02.01-.02.02-.04.03-.06,0,0,.01-.02.02-.03,0-.02.02-.03.03-.05.01-.02,0-.04-.02-.05.05-.06.11-.12.18-.16h0c.1-.05.21-.11.31-.17.01-.01.03-.03.04-.04-.15.05-.29.12-.43.21,0,0-.04.01-.05.02,0,0-.03.01-.07-.02,0,0,0-.01,0-.02.03-.05.11-.08.16-.13.03,0,.05,0,.05.03.86-.67,2.04-.51,3.04-.86.08-.05.16-.11.24-.16.13-.05.24-.19.4-.27.22-.16.38-.35.46-.62,0-.03-.03-.05-.03-.05-.35.38-.75.67-1.18.89-.56.3-1.18.24-1.77.32.03-.05.08-.05.13-.05,0-.08.05-.11.11-.16h.08s.03-.05.05-.05c.05,0,.13-.03.11-.03-.08-.11-.24.08-.38,0,.05-.05.03-.13.08-.16h.11c0-.05.05-.11.05-.11.4-.24.78-.43,1.16-.64-.08,0-.13.08-.21.03.05,0,0-.08.05-.08.3-.08.54-.24.83-.35-.11,0-.19.08-.3,0,.05-.03.08-.08.16-.08v-.08s.03-.03.05-.03c-.03,0-.05-.03-.05-.03.03-.05.11-.03.16-.08-.03,0-.08,0-.08-.03.08-.11.21-.13.35-.16-.03-.05-.11,0-.11-.05,0-.03.03-.03.05-.03h-.05c-.05-.03-.03-.08-.03-.11.16-.19.16-.43.24-.64-.03,0-.05,0-.05-.03-.27.3-.7.4-1.1.51h-.13c-.13.05-.32.05-.46-.03-.11-.05-.16-.13-.27-.21-.21-.13-.43-.24-.67-.32-.67-.21-1.37-.32-2.07-.3.3-.16.62-.17.94-.27.46-.13.89-.3,1.37-.27-.08-.03-.19,0-.27,0-.38-.03-.75.08-1.16.16-.27.05-.51.16-.78.21-.16.05-.24.21-.43.19v-.08c.27-.32.59-.64,1.02-.67.48-.08.94,0,1.42.05.35.03.67.11,1.02.19.13,0,.16.21.27.24.16.05.32,0,.48.11,0-.05-.03-.11,0-.16.11-.11.24.03.35-.03.21-.13-.19-.38-.3-.56,0-.03.03-.05.03-.05.21.19.38.4.64.54.13.05.46.13.4-.03-.13-.3-.4-.54-.62-.81v-.11c-.05,0-.05-.03-.08-.05v-.11c-.11-.05-.08-.16-.13-.24-.08-.13-.03-.32-.08-.48s-.08-.3-.11-.46c-.08-.46-.19-.86-.24-1.29-.05-.51.3-.91.54-1.37.19-.32.4-.64.75-.86.08-.32.3-.59.51-.86.21-.26.57-.42.83-.54.38-.17.71-.27.71-.27h-18.44v14.22h13.06c.51-.37,1.02-.54,1.74-.9.34-.17,1.11-.52,1.37-.78ZM375.41,10.62c-.05,0-.16.03-.13-.03.03-.13.21-.13.32-.19.05-.03.13-.08.19-.05.05.08.13.05.19.11-.16.16-.38.08-.56.16ZM371.3,10.03s-.03-.03-.03-.05c.35-.46.62-.89.86-1.37.35-.19.64-.46.91-.75.46-.48.94-.91,1.5-1.18.21-.08.48-.05.7.03-.08.11-.22.08-.32.16-.03,0-.05,0-.08-.03.03-.03.03-.05.03-.08-.27.3-.64.43-.86.78-.16.27-.27.62-.62.7-.11.03.03-.08-.03-.05-.83.51-1.42,1.13-2.07,1.85ZM373.53,8.25c-.03.05-.06.06-.08.11-.03.05-.05.08-.11.11-.03,0-.05,0-.05-.03.03-.11.11-.21.22-.24.03,0,.03.03.03.05ZM374.77,12.28s-.04.05-.07.08c.03,0,.06.02.04.04-.06.06-.12.11-.2.14,0,0-.02,0-.04,0-.03.03-.07.06-.1.09-.03.03-.18,0-.13-.03.07-.06.13-.13.2-.19.04-.03.08-.07.11-.11.02-.02.03-.04.06-.06.02-.02.16-.03.14.02ZM374.29,12.06s0,0,0,0c-.1.07-.2.14-.31.2-.11.07-.24.12-.35.17,0,0,0,0,0,0,0-.01-.03-.02-.05-.01-.1.06-.19.13-.27.21-.01.01-.02.02-.04.04,0,0,0,0,0,0,0,0,0,0,0,0-.01.01-.03.03-.04.04,0,0,0,0,0,0,0,0,0,0,0,0-.02.02-.04.04-.06.06-.01.02-.02.03-.04.04-.02.01-.06.01-.06-.02,0,0,0,0,0,0-.02,0-.03.02-.05.02-.01,0-.03.02-.04.02,0,0-.01,0-.02,0,0,0-.01,0-.02,0-.03.03-.07.05-.1.08-.06.05-.11.11-.16.17,0,0,0,0,0,0,0,0,0,0,0,0,0,0,0,0,0,.01,0,0,0,0,0,.01,0,0,0,0,0,0,0,0-.01.02-.02.03,0,0,0,0,0,0,0,0-.01,0-.02.01,0,0,0-.01-.01-.02,0,0,0,0,0-.01,0-.01-.02-.03-.02-.04,0,0,0,0,0,0,0,0,0,0,0-.01.03-.03.06-.06.08-.1,0,0,0,0,0,0,0-.01.02-.02.03-.03.02-.02.03-.04.05-.06,0,0,.01-.01.02-.02.03-.04.06-.08.08-.11,0,0,0,0,0,0,0,0,0-.01.01-.02.01-.02.03-.04.04-.06.01-.02.02-.04.03-.05,0,0,0,0,0,0,0,0,0,0,0,0,0,0,0,0,0,0,0-.02.02-.04.03-.06,0,0,0,0,0,0,0,0,0-.01,0-.02,0,0,0-.02,0-.03h0s0,0,0,0c0-.01,0-.03,0-.04,0,0,0-.01,0-.02.03-.05.07-.1.11-.15,0,0,0,0-.01,0-.04.02-.06.06-.1.09-.03.02-.08-.01-.05-.04.02-.02.04-.04.06-.06,0,0,0,0,0,0,.04-.04.09-.1.14-.14.03-.02.06-.04.08-.06,0,0,0,0,.01-.01.02-.02.04-.05.06-.07,0,0,0,0,0,0,.26-.25.69-.24,1.03-.4.13-.05.3.03.43,0,.08,0,.16,0,.24.05-.24.13-.46.28-.68.42ZM374.84,10.19s.08,0,.11-.05h-.21s-.03-.03-.03-.05c-.13.03-.3.08-.43.11-.19.05-.35.19-.56.24-.3.11-.54.35-.86.46-.03,0-.03-.03-.03-.05.03-.08.13-.11.19-.19,0-.03,0-.05-.03-.05.22-.3.51-.46.78-.7v-.08c.08-.11.21-.16.27-.3.03-.08.13-.19.27-.24-.03-.03-.08-.03-.08-.08-.11,0-.22.05-.32-.03.05-.05.11-.08.17-.1-.02,0-.04-.02-.06-.04-.03-.05.05-.11.13-.13.11-.03.24-.03.32-.11-.19-.03-.4.05-.59-.05.13-.35.35-.64.67-.81.03,0,.08,0,.08.03,0,.13-.08.24-.22.27.22.05.43.05.64.16-.03.05-.08.03-.11.03.13.08.3.03.43.13-.08.08-.16,0-.24,0,.83.24,1.72.43,2.42.97-.59.3-1.21.43-1.85.56-.08,0-.13,0-.21-.03,0,.03,0,.08-.03.08-.11,0-.19,0-.27.05-.11.05-.27.08-.35,0Z"></path><path class="cls-7" d="M402.48,0h-15.3s.03,0,.15.07c.12.07.28.15.39.21.2.1.39.23.51.43.05.08.13.24.08.35-.05.13-.08.35-.21.4-.16.08-.38.08-.56.05-.11,0-.22-.03-.32-.05.4.16.78.35,1.05.73.03.05.13.08.24.08.03,0,.03.05.03.08-.05.05-.11.08-.08.16h.08c.13-.05.11-.32.3-.24.13.08.19.27.11.4-.11.11-.22.19-.32.27-.03.05-.03.13,0,.19.08.11.11.21.13.32.08.19.11.4.19.59.11.4.21.81.19,1.21,0,.21-.11.4-.03.62.05.21.19.38.3.56.11.16.21.27.3.43.16.27.46.54.32.86-.08.19-.38.16-.56.27-.16.13-.03.35.05.48.13.24-.16.4-.35.48.05.08.16.05.19.11.03.13.16.21.08.35-.11.16-.43.24-.27.48.11.19.04.4-.03.59-.08.24-.3.35-.48.4-.16.05-.35.05-.51.03-.05-.03-.11-.05-.16-.05-.46-.05-.91-.19-1.37-.19-.13.03-.27.05-.38.11-.12.09-.23.19-.33.29,0,0,0,0,0,0-.02.02-.04.04-.06.07-.01.01-.02.03-.03.04,0,0-.02.02-.02.03-.08.1-.15.2-.21.31,0,0,0,.01-.01.02,0,.01-.01.03-.02.04-.09.16-.16.33-.2.49-.18.62-.1,1.14.03,1.27.04.04.89.3,1.48.56.28.12.47.22.63.32h15.02V0Z"></path><path class="cls-8" d="M388.09,5.19c.11.03.27.03.27.08-.05.21-.38.27-.54.48h-.08c-.08.05-.05.19-.13.19-.08-.03-.16,0-.24.03.11.11.24.19.4.16.03,0,.08.05.08.11,0,0,.03,0,.05-.03.03,0,.05,0,.05.03v.11c-.08.11-.22.05-.32.08.21.05.43.05.62,0,.16-.05,0-.32.11-.46-.05,0,0-.08-.05-.08.05-.05.11-.13.16-.16.05,0,.13-.03.16-.08,0-.05-.11-.08-.08-.13.16-.11.3-.27.24-.43-.03-.08-.24-.08-.38-.13-.13-.05-.3,0-.46.03-.13,0-.27.08-.4.11-.19.05-.35.16-.51.27.19-.08.38-.11.59-.16.16,0,.3-.04.46,0Z"></path></g></g></g></g></svg>